#!OML:ASF F:\VICON\USERDATA\INSTALL\rory3\rory3.ASF
:FULLY-SPECIFIED
:DEGREES
570
root 0.641023 17.9631 -0.52615 2.34316 -27.5217 0.230356
lowerback -1.11081 0.082552 -3.68781
upperback 0.117823 0.154599 0.763848
thorax 0.732087 0.06096 2.85539
lowerneck -16.1893 -3.86755 -12.1485
upperneck 24.2138 -4.0974 7.21753
head 10.8992 -2.16962 4.08192
rclavicle 3.73707e-014 -8.24956e-015
rhumerus -20.6403 48.8838 -83.1381
rradius 123.198
rwrist 36.416
rhand 4.47743 21.4494
rfingers 7.12502
rthumb 29.8714 -6.16111
lclavicle 3.73707e-014 -8.24956e-015
lhumerus -42.0747 -30.6466 100.54
lradius 90.3259
lwrist 10.0719
lhand -17.0198 25.6323
lfingers 7.12502
lthumb 9.21625 55.4109
rfemur -7.94327 2.39036 12.1153
rtibia 22.1562
rfoot -16.4447 -11.8812
rtoes 2.4376
lfemur -1.8899 0.342891 -22.0896
ltibia 15.5403
lfoot -11.2311 4.95973
ltoes -11.8079
571
root 0.638917 17.9605 -0.515935 2.27336 -27.6651 0.294298
lowerback -1.10142 0.0770809 -3.75496
upperback 0.0610449 0.146885 0.778334
thorax 0.668935 0.0589765 2.90784
lowerneck -16.1969 -3.88711 -12.1681
upperneck 24.137 -4.12389 7.24821
head 10.8763 -2.17826 4.09079
rclavicle -9.03538e-015 -4.57205e-015
rhumerus -20.6155 49.215 -83.0064
rradius 123.302
rwrist 36.2439
rhand 4.72885 21.2893
rfingers 7.12502
rthumb 30.1113 -6.27777
lclavicle -9.03538e-015 -4.57205e-015
lhumerus -42.1748 -30.7428 100.654
lradius 90.1646
lwrist 10.1649
lhand -16.6001 25.4065
lfingers 7.12502
lthumb 9.62124 55.1668
rfemur -7.90504 2.46074 12.0275
rtibia 22.1692
rfoot -16.4249 -11.841
rtoes 2.25331
lfemur -1.76798 0.421171 -22.1779
ltibia 15.5019
lfoot -11.2767 5.04703
ltoes -11.9288
572
root 0.635654 17.9598 -0.504693 2.26355 -27.7631 0.359266
lowerback -1.16867 0.0638203 -3.81769
upperback -0.0285101 0.131234 0.789957
thorax 0.615766 0.053429 2.95489
lowerneck -16.142 -3.89534 -12.2859
upperneck 24.1193 -4.14603 7.38143
head 10.8671 -2.1846 4.15693
rclavicle 1.07779e-015 -1.59028e-015
rhumerus -20.5759 49.4271 -82.8148
rradius 123.387
rwrist 35.8931
rhand 4.92808 21.2323
rfingers 7.12502
rthumb 30.3014 -6.3
lclavicle 1.07779e-015 -1.59028e-015
lhumerus -42.3495 -30.8077 100.809
lradius 90.0448
lwrist 10.4215
lhand -16.1282 25.0338
lfingers 7.12502
lthumb 10.0764 54.7726
rfemur -7.92327 2.47995 11.945
rtibia 22.2149
rfoot -16.4057 -11.7812
rtoes 2.14863
lfemur -1.70681 0.563747 -22.2464
ltibia 15.4354
lfoot -11.265 4.99293
ltoes -11.8492
573
root 0.633192 17.9591 -0.493713 2.27545 -27.8489 0.364816
lowerback -1.2638 0.0599143 -3.813
upperback -0.0821737 0.128775 0.809183
thorax 0.614172 0.0530687 2.97219
lowerneck -16.1705 -3.91063 -12.318
upperneck 24.1401 -4.16627 7.41746
head 10.8843 -2.19266 4.17324
rclavicle -7.21619e-014 2.5345e-015
rhumerus -20.509 49.6212 -82.5881
rradius 123.45
rwrist 35.6943
rhand 5.16337 21.2363
rfingers 7.12502
rthumb 30.5258 -6.25452
lclavicle -7.21619e-014 2.5345e-015
lhumerus -42.478 -30.8314 100.925
lradius 89.9724
lwrist 10.6538
lhand -15.8104 24.8642
lfingers 7.12502
lthumb 10.3831 54.5878
rfemur -7.9353 2.50728 11.924
rtibia 22.2721
rfoot -16.4672 -11.6779
rtoes 2.32204
lfemur -1.65028 0.742111 -22.2637
ltibia 15.3833
lfoot -11.2317 4.93551
ltoes -11.9932
574
root 0.631363 17.9553 -0.489301 2.04778 -27.8188 0.400246
lowerback -1.06399 0.0340917 -3.87728
upperback -0.0649196 0.0873308 0.833877
thorax 0.523006 0.0337778 3.03274
lowerneck -16.3066 -3.9387 -12.2412
upperneck 24.1973 -4.18331 7.31006
head 10.9303 -2.20456 4.11843
rclavicle 7.77993e-014 -4.32357e-015
rhumerus -20.3919 49.8199 -82.2766
rradius 123.489
rwrist 35.5104
rhand 5.41729 21.1066
rfingers 7.12502
rthumb 30.7679 -6.33887
lclavicle 7.77993e-014 -4.32357e-015
lhumerus -42.4959 -30.9899 101.017
lradius 89.8473
lwrist 10.8214
lhand -15.6944 24.8759
lfingers 7.12502
lthumb 10.4949 54.5939
rfemur -7.68585 2.56389 11.9053
rtibia 22.3046
rfoot -16.5349 -11.7093
rtoes 2.40246
lfemur -1.39511 0.792725 -22.2952
ltibia 15.382
lfoot -11.3124 4.89219
ltoes -12.2465
575
root 0.630191 17.9489 -0.493646 1.71827 -27.6501 0.404621
lowerback -0.607095 -0.0505558 -3.9813
upperback -0.0425672 -0.0430843 0.895385
thorax 0.30044 -0.0273255 3.15285
lowerneck -16.5675 -3.96293 -12.0562
upperneck 24.3548 -4.16642 7.02888
head 11.0282 -2.2114 3.98711
rclavicle 1.65053e-014 -3.32964e-015
rhumerus -20.2723 50.1591 -81.9803
rradius 123.63
rwrist 35.3105
rhand 6.29043 21.179
rfingers 7.12502
rthumb 31.6 -6.10631
lclavicle 1.65053e-014 -3.32964e-015
lhumerus -42.4831 -31.1324 101.143
lradius 89.7188
lwrist 10.981
lhand -15.5701 24.7311
lfingers 7.12502
lthumb 10.6149 54.443
rfemur -7.31134 2.59657 11.9432
rtibia 22.3383
rfoot -16.6889 -11.8068
rtoes 2.83149
lfemur -1.05423 0.639372 -22.2698
ltibia 15.3843
lfoot -11.3832 4.85231
ltoes -12.0233
576
root 0.629431 17.9476 -0.494555 1.60604 -27.6055 0.321129
lowerback -0.390903 -0.118147 -3.95587
upperback -0.0480591 -0.142429 0.94821
thorax 0.181973 -0.0743816 3.19251
lowerneck -16.753 -3.97896 -11.876
upperneck 24.4028 -4.15838 6.80805
head 11.0727 -2.21488 3.87537
rclavicle -1.06365e-014 -4.07509e-015
rhumerus -20.0681 50.4155 -81.6984
rradius 123.737
rwrist 35.1767
rhand 6.87576 21.2998
rfingers 7.12502
rthumb 32.1574 -5.87445
lclavicle -1.06365e-014 -4.07509e-015
lhumerus -42.4523 -31.2074 101.205
lradius 89.5788
lwrist 11.0196
lhand -15.2592 24.5181
lfingers 7.12502
lthumb 10.9147 54.2145
rfemur -7.15803 2.67866 12.0476
rtibia 22.3862
rfoot -16.7996 -11.8504
rtoes 2.90174
lfemur -0.887597 0.528928 -22.1733
ltibia 15.3535
lfoot -11.3625 4.87375
ltoes -11.7221
577
root 0.628275 17.9467 -0.485007 1.60494 -27.745 0.39172
lowerback -0.521073 -0.138765 -3.9777
upperback -0.0521695 -0.164538 0.931705
thorax 0.252652 -0.0869139 3.18738
lowerneck -16.8355 -4.01357 -11.8787
upperneck 24.33 -4.19787 6.82639
head 11.0664 -2.22783 3.87459
rclavicle -4.76353e-014 8.44835e-015
rhumerus -19.6687 50.5388 -81.3097
rradius 123.721
rwrist 35.1238
rhand 6.97334 21.4433
rfingers 7.12502
rthumb 32.2503 -5.71214
lclavicle -4.76353e-014 8.44835e-015
lhumerus -42.3283 -31.2664 101.182
lradius 89.4008
lwrist 11.1277
lhand -15.0454 24.3881
lfingers 7.12502
lthumb 11.1209 54.0734
rfemur -7.22426 2.6955 11.9601
rtibia 22.4379
rfoot -16.74 -11.7695
rtoes 2.77329
lfemur -0.841384 0.620047 -22.2627
ltibia 15.2913
lfoot -11.3753 4.93782
ltoes -11.7781
578
root 0.626684 17.9462 -0.470559 1.60523 -27.8373 0.478417
lowerback -0.720028 -0.169437 -3.95102
upperback -0.0341567 -0.197027 0.874563
thorax 0.385207 -0.106243 3.11264
lowerneck -16.9161 -4.04106 -11.9124
upperneck 24.2514 -4.24377 6.93804
head 11.0609 -2.23534 3.9129
rclavicle -3.16409e-014 3.8763e-015
rhumerus -19.2553 50.7321 -81.0026
rradius 123.69
rwrist 35.2151
rhand 7.35964 21.8457
rfingers 7.12502
rthumb 32.618 -5.23437
lclavicle -3.16409e-014 3.8763e-015
lhumerus -42.1853 -31.3412 101.089
lradius 89.3232
lwrist 11.4354
lhand -14.8388 24.3346
lfingers 7.12502
lthumb 11.3203 54.0091
rfemur -7.25814 2.59318 11.8398
rtibia 22.4663
rfoot -16.6403 -11.6702
rtoes 2.42874
lfemur -0.778965 0.707063 -22.3776
ltibia 15.2191
lfoot -11.4069 4.95642
ltoes -11.8241
